<svg version="1.0" xmlns="http://www.w3.org/2000/svg"
 width="225.000000pt" height="240.000000pt" viewBox="0 0 225.000000 240.000000"
 preserveAspectRatio="xMidYMid meet">
 <!-- <style>
    @media (prefers-color-scheme: dark) {
      g {
        fill: #dcdcdc
      }
    }
 </style> -->

<g transform="translate(0.000000,240.000000) scale(0.100000,-0.100000)"
fill="#000000" stroke="none">
<path d="M1040 2251 c-14 -4 -56 -25 -93 -45 -78 -41 -106 -45 -114 -16 -7 26
-14 25 -45 -7 -63 -68 -63 -106 0 -154 l47 -36 41 42 c26 27 54 45 82 52 23 6
42 9 42 6 0 -2 -13 -15 -29 -29 -40 -33 -68 -93 -50 -105 35 -22 153 -4 197
30 21 15 20 16 -33 13 -34 -3 -55 0 -55 7 0 10 117 51 146 51 7 0 37 15 66 33
63 40 125 65 193 77 43 8 36 9 -45 6 -72 -2 -107 -8 -144 -24 -38 -17 -52 -20
-63 -10 -27 22 -11 51 37 69 l45 17 -30 12 c-37 15 -161 22 -195 11z"/>
<path d="M583 2164 c-27 -61 -22 -158 10 -220 23 -45 143 -171 153 -161 3 2 0
16 -6 31 -19 51 -10 126 15 126 17 0 73 -65 86 -98 8 -21 12 -23 19 -12 13 21
203 26 300 7 41 -8 76 -14 78 -12 2 2 -23 12 -55 23 -56 20 -57 20 -22 21 50
1 182 -34 259 -69 70 -32 55 -14 -20 25 -118 60 -290 95 -470 95 -95 0 -96 0
-113 29 -10 17 -50 56 -89 88 -50 41 -81 75 -100 112 l-28 53 -17 -38z"/>
<path d="M415 2065 c-7 -50 -4 -89 12 -152 5 -22 2 -23 -56 -23 -72 0 -113
-15 -164 -60 -46 -40 -47 -51 -5 -39 18 5 49 9 68 9 l35 -1 -36 -19 c-43 -23
-104 -90 -118 -131 l-10 -28 40 26 c22 14 42 23 45 20 3 -3 -4 -23 -15 -45
-11 -22 -23 -60 -27 -84 l-6 -43 27 40 c39 57 64 84 109 116 46 34 66 37 66 9
0 -11 4 -20 8 -20 14 0 92 76 92 88 0 8 -19 12 -51 12 -29 0 -48 4 -44 10 6
10 38 16 140 26 l70 6 -36 18 c-38 20 -65 47 -56 56 3 3 19 -2 36 -10 16 -9
32 -16 35 -16 3 0 -9 30 -27 68 -26 56 -31 79 -31 139 0 62 -2 69 -14 52 -7
-10 -19 -36 -26 -56 l-14 -38 -11 28 c-6 16 -11 41 -11 57 0 52 -18 41 -25
-15z"/>
<path d="M1405 2107 c-50 -17 -132 -60 -165 -87 l-25 -20 43 15 c52 18 199 38
238 33 l29 -4 -30 -13 c-48 -20 -88 -55 -112 -97 l-21 -39 126 0 c119 0 131
-2 183 -28 87 -42 93 -56 20 -50 -32 3 -72 2 -88 -2 -28 -7 -27 -7 17 -21 75
-24 161 -94 115 -94 -9 0 -30 -14 -47 -30 -27 -28 -30 -35 -24 -73 9 -53 55
-144 115 -225 l46 -64 6 36 c6 35 24 66 39 66 13 0 30 -59 30 -102 0 -50 -19
-95 -61 -144 l-34 -39 30 19 c83 52 110 100 123 219 6 56 17 99 31 122 18 31
19 37 5 42 -13 5 -82 1 -184 -9 -23 -3 -25 1 -28 37 -2 23 3 48 11 59 13 18
15 18 68 -2 30 -11 80 -23 112 -27 66 -8 190 2 182 16 -4 5 -16 9 -28 9 -67 1
-156 70 -228 177 -54 80 -105 122 -177 149 -61 22 -76 36 -32 28 52 -9 101
-25 143 -46 l38 -19 -11 21 c-23 43 -132 139 -188 166 -68 33 -200 43 -267 21z"/>
<path d="M317 2094 c-8 -9 14 -88 34 -120 37 -60 47 -60 41 -2 -4 42 -12 61
-38 90 -18 20 -34 34 -37 32z"/>
<path d="M692 1688 c-11 -18 -24 -45 -27 -60 -6 -25 -4 -28 17 -28 33 0 41 10
21 25 -16 12 -16 16 -1 54 20 49 16 52 -10 9z"/>
<path d="M1067 1656 c39 -36 73 -79 90 -114 25 -50 28 -68 28 -152 0 -83 -3
-101 -27 -145 -53 -101 -182 -187 -302 -203 l-58 -7 -18 -48 c-24 -63 -66
-117 -91 -117 -26 0 -25 39 2 74 11 14 16 26 10 26 -6 0 -23 -17 -38 -37 -15
-20 -40 -48 -55 -62 -22 -20 -25 -28 -17 -43 13 -24 1 -143 -17 -180 -17 -33
-51 -58 -80 -58 -20 0 -20 2 -10 43 6 23 21 56 34 74 33 47 27 61 -12 24 -19
-18 -42 -53 -51 -77 -20 -53 -54 -74 -119 -74 -64 0 -92 13 -99 47 -3 15 -18
46 -32 68 -27 39 -27 40 -12 85 8 25 18 80 22 123 7 88 41 230 80 326 20 51
25 81 24 140 l-2 76 -11 -70 c-7 -38 -22 -89 -34 -112 -29 -57 -67 -205 -86
-338 -8 -61 -22 -130 -30 -154 -15 -41 -15 -46 3 -75 10 -17 25 -51 32 -75 14
-48 33 -64 105 -86 65 -20 100 -19 151 4 23 11 51 17 63 14 39 -10 110 92 110
160 0 8 22 31 48 50 47 34 103 106 138 180 10 20 25 39 33 41 9 2 49 12 89 21
70 17 74 17 93 -1 12 -11 30 -37 41 -58 23 -45 22 -76 -11 -226 -39 -177 -25
-375 35 -477 35 -60 43 -60 23 0 -18 54 -31 152 -21 162 3 3 21 -9 40 -27 26
-24 33 -28 27 -13 -31 81 -45 145 -45 209 0 40 3 76 7 80 4 4 17 -12 29 -35
l21 -42 6 55 c5 57 43 158 58 158 5 0 9 -24 10 -52 l1 -53 13 31 c8 17 41 90
75 162 97 212 105 273 49 397 l-23 50 -7 -83 c-8 -106 -48 -191 -126 -268 -31
-30 -57 -53 -59 -51 -3 2 16 34 40 70 108 161 124 327 49 500 -14 31 -30 57
-35 57 -5 0 -34 26 -66 58 -31 31 -77 68 -102 81 l-45 25 62 -58z"/>
<path d="M1190 1664 c148 -82 247 -192 292 -324 18 -52 22 -87 22 -175 0 -60
-6 -130 -13 -154 -17 -59 -8 -62 24 -6 74 126 84 271 27 387 -56 114 -185 222
-334 282 -90 35 -95 33 -18 -10z"/>
<path d="M487 1632 c-53 -53 -70 -82 -48 -82 13 0 77 74 96 109 8 17 14 31 12
31 -1 0 -28 -26 -60 -58z"/>
<path d="M276 1563 c-42 -41 -81 -104 -92 -147 -6 -27 -6 -28 16 -16 21 11 22
10 15 -6 -4 -11 -9 -48 -12 -84 l-4 -65 26 60 c15 33 32 78 37 100 6 22 20 74
33 115 13 41 22 76 21 77 -1 1 -19 -14 -40 -34z"/>
<path d="M754 1558 l-19 -23 23 19 c21 18 27 26 19 26 -2 0 -12 -10 -23 -22z"/>
<path d="M460 1504 c-13 -33 -12 -54 1 -31 13 22 74 24 65 2 -4 -11 2 -15 20
-15 27 0 40 -21 29 -47 -7 -16 -9 -15 -14 6 -8 30 -41 43 -64 26 -34 -25 18
-73 66 -61 27 6 57 59 57 100 0 14 5 26 10 26 6 0 10 3 10 8 0 4 -39 8 -86 9
-82 2 -85 1 -94 -23z"/>
<path d="M718 1513 c-31 -36 -68 -110 -68 -136 0 -44 -29 -101 -63 -124 -28
-20 -29 -23 -10 -23 67 0 103 46 103 133 0 41 7 69 29 111 32 59 33 67 9 39z"/>
<path d="M2017 1310 c-33 -113 -120 -202 -239 -245 -51 -18 -57 -23 -44 -34
28 -24 19 -66 -21 -101 l-36 -32 34 7 c48 10 172 68 215 101 37 29 104 110
104 127 0 5 -7 7 -15 3 -18 -7 -18 -6 0 57 13 49 28 167 20 167 -2 0 -10 -22
-18 -50z"/>
<path d="M446 1308 c-13 -28 1 -48 31 -47 27 0 27 1 6 11 -12 6 -24 20 -26 32
-3 19 -4 19 -11 4z"/>
<path d="M355 1108 c-10 -35 -19 -95 -19 -135 -1 -66 1 -74 28 -102 16 -17 31
-29 33 -27 2 2 -3 20 -11 40 -22 53 -26 106 -16 198 5 45 8 83 6 85 -2 2 -11
-25 -21 -59z"/>
<path d="M630 1105 c0 -16 -15 -51 -34 -79 -19 -28 -37 -62 -41 -76 l-7 -25
21 27 c32 40 79 71 129 83 l45 12 -37 23 c-21 12 -46 32 -57 43 l-19 21 0 -29z"/>
<path d="M320 819 c-11 -8 -12 -12 -2 -16 25 -10 42 -35 42 -64 0 -16 -4 -29
-10 -29 -5 0 -10 8 -10 18 0 19 -18 42 -33 42 -5 0 -4 -7 3 -15 16 -20 5 -45
-20 -45 -22 0 -27 -28 -10 -59 8 -15 16 -17 50 -11 50 9 52 10 66 68 12 45 11
48 -18 84 -32 41 -36 43 -58 27z"/>
</g>
</svg>
